<mxfile host="app.diagrams.net" agent="Mozilla/5.0 (Windows NT 10.0; Win64; x64) AppleWebKit/537.36 (KHTML, like Gecko) Chrome/138.0.0.0 Safari/537.36 Edg/138.0.0.0" version="28.0.5">
  <diagram name="Page-1" id="FyiLnFbVFpmElyy8We9o">
    <mxGraphModel dx="1034" dy="636" grid="1" gridSize="10" guides="1" tooltips="1" connect="1" arrows="1" fold="1" page="1" pageScale="1" pageWidth="850" pageHeight="1100" math="0" shadow="0">
      <root>
        <mxCell id="0" />
        <mxCell id="1" parent="0" />
        <mxCell id="k-gRONugl31BCvm0553H-33" style="edgeStyle=orthogonalEdgeStyle;rounded=0;orthogonalLoop=1;jettySize=auto;html=1;entryX=0;entryY=0.5;entryDx=0;entryDy=0;curved=1;endSize=14;strokeWidth=3;" edge="1" parent="1" source="k-gRONugl31BCvm0553H-1" target="k-gRONugl31BCvm0553H-2">
          <mxGeometry relative="1" as="geometry">
            <Array as="points">
              <mxPoint x="201" y="135" />
            </Array>
          </mxGeometry>
        </mxCell>
        <mxCell id="k-gRONugl31BCvm0553H-38" value="&lt;font style=&quot;font-size: 18px;&quot;&gt;Deploy&lt;/font&gt;" style="edgeLabel;html=1;align=center;verticalAlign=middle;resizable=0;points=[];" vertex="1" connectable="0" parent="k-gRONugl31BCvm0553H-33">
          <mxGeometry x="-0.324" y="-24" relative="1" as="geometry">
            <mxPoint x="1" as="offset" />
          </mxGeometry>
        </mxCell>
        <mxCell id="k-gRONugl31BCvm0553H-1" value="&lt;font style=&quot;font-size: 24px;&quot;&gt;Blueprint&lt;/font&gt;" style="ellipse;whiteSpace=wrap;html=1;fillColor=#0050ef;fontColor=#ffffff;strokeColor=#001DBC;" vertex="1" parent="1">
          <mxGeometry x="118" y="270" width="165" height="110" as="geometry" />
        </mxCell>
        <mxCell id="k-gRONugl31BCvm0553H-35" style="edgeStyle=orthogonalEdgeStyle;rounded=0;orthogonalLoop=1;jettySize=auto;html=1;entryX=0.5;entryY=0;entryDx=0;entryDy=0;curved=1;strokeWidth=3;endSize=14;" edge="1" parent="1" source="k-gRONugl31BCvm0553H-2" target="k-gRONugl31BCvm0553H-3">
          <mxGeometry relative="1" as="geometry" />
        </mxCell>
        <mxCell id="k-gRONugl31BCvm0553H-40" value="&lt;font style=&quot;font-size: 18px;&quot;&gt;Snapshot&lt;/font&gt;" style="edgeLabel;html=1;align=center;verticalAlign=middle;resizable=0;points=[];" vertex="1" connectable="0" parent="k-gRONugl31BCvm0553H-35">
          <mxGeometry x="0.2879" y="-32" relative="1" as="geometry">
            <mxPoint as="offset" />
          </mxGeometry>
        </mxCell>
        <mxCell id="k-gRONugl31BCvm0553H-37" style="edgeStyle=orthogonalEdgeStyle;rounded=0;orthogonalLoop=1;jettySize=auto;html=1;entryX=1;entryY=0.5;entryDx=0;entryDy=0;curved=1;endSize=14;startSize=6;strokeWidth=4;" edge="1" parent="1" source="k-gRONugl31BCvm0553H-2" target="k-gRONugl31BCvm0553H-1">
          <mxGeometry relative="1" as="geometry">
            <Array as="points">
              <mxPoint x="360" y="325" />
            </Array>
          </mxGeometry>
        </mxCell>
        <mxCell id="k-gRONugl31BCvm0553H-39" value="&lt;font style=&quot;font-size: 18px;&quot;&gt;Export&lt;/font&gt;" style="edgeLabel;html=1;align=center;verticalAlign=middle;resizable=0;points=[];" vertex="1" connectable="0" parent="k-gRONugl31BCvm0553H-37">
          <mxGeometry x="-0.2399" y="-10" relative="1" as="geometry">
            <mxPoint as="offset" />
          </mxGeometry>
        </mxCell>
        <mxCell id="k-gRONugl31BCvm0553H-2" value="&lt;font style=&quot;font-size: 24px;&quot;&gt;Range&lt;/font&gt;" style="ellipse;whiteSpace=wrap;html=1;fillColor=#e51400;fontColor=#ffffff;strokeColor=#B20000;" vertex="1" parent="1">
          <mxGeometry x="343" y="80" width="165" height="110" as="geometry" />
        </mxCell>
        <mxCell id="k-gRONugl31BCvm0553H-36" style="edgeStyle=orthogonalEdgeStyle;rounded=0;orthogonalLoop=1;jettySize=auto;html=1;entryX=1;entryY=1;entryDx=0;entryDy=0;curved=1;strokeWidth=3;endSize=14;" edge="1" parent="1" source="k-gRONugl31BCvm0553H-3" target="k-gRONugl31BCvm0553H-2">
          <mxGeometry relative="1" as="geometry">
            <Array as="points">
              <mxPoint x="484" y="325" />
            </Array>
          </mxGeometry>
        </mxCell>
        <mxCell id="k-gRONugl31BCvm0553H-41" value="&lt;font style=&quot;font-size: 18px;&quot;&gt;Deploy&lt;/font&gt;" style="edgeLabel;html=1;align=center;verticalAlign=middle;resizable=0;points=[];" vertex="1" connectable="0" parent="k-gRONugl31BCvm0553H-36">
          <mxGeometry x="0.2673" y="-7" relative="1" as="geometry">
            <mxPoint as="offset" />
          </mxGeometry>
        </mxCell>
        <mxCell id="k-gRONugl31BCvm0553H-3" value="&lt;font style=&quot;font-size: 24px;&quot;&gt;Snapshot&lt;/font&gt;" style="ellipse;whiteSpace=wrap;html=1;fillColor=#008a00;strokeColor=#005700;fontColor=#ffffff;" vertex="1" parent="1">
          <mxGeometry x="568" y="270" width="165" height="110" as="geometry" />
        </mxCell>
      </root>
    </mxGraphModel>
  </diagram>
</mxfile>
